<svg width="144" height="156" viewBox="0 0 144 156" fill="none" xmlns="http://www.w3.org/2000/svg">
<g clip-path="url(#clip0_1714_41049)">
<path d="M128.938 112.319C117.238 99.8389 116.458 101.399 109.438 99.0589C105.428 98.5242 96.1783 94.3789 92.2783 92.8189C90.9095 92.2714 87.5561 90.3146 88.8156 90.6907C90.7183 91.2589 98.7215 83.8426 103.198 80.3389C111.158 74.1099 108.658 61.6189 109.438 56.9389C93.0583 62.3989 93.7623 67.2851 73.5583 67.0789C53.3544 66.8727 41.5783 57.7189 34.5583 55.3789C35.3383 67.8589 33.6902 72.3352 38.4583 80.3389C49.3783 91.2589 59.5183 90.4789 54.8383 93.5989C43.9183 95.9389 24.4183 102.959 17.3983 115.439C13.5683 129.802 133.618 121.679 128.938 112.319Z" fill="white"/>
<path d="M109.436 35.8786C104.236 16.6386 91.7561 5.19859 71.9961 1.55859C57.9561 5.19859 49.6361 8.57859 47.0361 11.6986L32.9961 31.9786V35.0986C46.1456 29.7675 59.1456 27.1675 71.9961 27.2986C84.6256 27.4275 97.1056 30.2875 109.436 35.8786Z" fill="#FFFBFB"/>
<path opacity="0.411" d="M33.7773 37.4369C50.9373 30.6769 63.9373 27.2969 72.7773 27.2969C81.6173 27.2969 93.5773 30.6769 108.657 37.4369V53.0369C99.6866 61.3569 88.5066 65.5169 75.1173 65.5169C61.7281 65.5169 47.9481 61.3569 33.7773 53.0369V37.4369Z" fill="url(#paint0_linear_1714_41049)" stroke="#979797" stroke-width="1.56" stroke-linecap="square"/>
<path d="M97.5427 42.118L81.7477 63.763M92.2777 30.418L72.9727 56.743M95.2027 35.683L85.2577 49.723" stroke="#935DD1" stroke-width="1.60836" stroke-linecap="round" stroke-linejoin="round"/>
<path fill-rule="evenodd" clip-rule="evenodd" d="M104.937 77.4143C104.937 77.4143 79.3068 109.987 37.0168 79.1829C32.8856 58.1799 31.7865 44.6938 33.1862 35.1134C34.5858 25.5331 49.2026 2.33984 72.355 2.33984C95.5074 2.33984 108.325 29.1441 109.504 34.966C110.683 40.7879 108.546 60.1697 104.937 77.4143Z" stroke="#232638" stroke-width="2.34" stroke-linecap="round" stroke-linejoin="round"/>
<path d="M32.6094 36.8552C32.6094 36.8552 67.1538 14.4789 109.829 36.8552M33.2206 52.6513C32.0733 52.4449 68.7421 81.1043 109.244 53.5396" stroke="#232638" stroke-width="2.19336" stroke-linecap="round" stroke-linejoin="round"/>
<path d="M105.733 73.125C105.733 73.125 79.6994 107.411 36.7031 74.9544" stroke="#232638" stroke-width="1.755" stroke-linecap="round" stroke-linejoin="round"/>
<path d="M34.9492 32.7583C36.8569 31.5512 38.8316 30.4599 40.8631 29.4902C42.8972 28.5196 44.9792 27.6592 47.1006 26.9125C48.3042 26.4872 49.5188 26.0957 50.7442 25.7383" stroke="#232638" stroke-width="1.31664" stroke-linecap="round" stroke-linejoin="round"/>
<path d="M93.4492 64.3472C98.3521 62.3094 103.181 59.8063 107.489 56.7422" stroke="#232638" stroke-width="1.53504" stroke-linecap="round" stroke-linejoin="round"/>
<path d="M65.9542 84.2397C63.6064 83.7497 61.297 83.1043 59.0428 82.3081C56.9031 81.5507 54.8208 80.6528 52.8107 79.6207C51.6956 79.0503 50.6168 78.445 49.5742 77.8047M77.0692 84.8247C79.3301 84.2553 81.5489 83.5322 83.7102 82.6606C85.7789 81.8241 87.7888 80.8506 89.7264 79.7465C90.8059 79.1323 91.8518 78.485 92.8642 77.8047" stroke="#232638" stroke-width="1.82832" stroke-linecap="round" stroke-linejoin="round"/>
<path d="M41.3828 38.0228C43.472 37.0233 45.617 36.1487 47.8068 35.4036C49.9984 34.6577 52.2271 34.0289 54.4835 33.5199C55.7639 33.2293 57.052 32.9753 58.3478 32.7578" stroke="#935DD1" stroke-width="1.31664" stroke-linecap="round" stroke-linejoin="round"/>
<path fill-rule="evenodd" clip-rule="evenodd" d="M57.2277 118.968C57.4419 122.639 54.9596 124.413 54.9596 124.413L50.5458 127.724L46.1305 124.413C46.1305 124.413 43.6497 122.639 43.8632 118.968L41.7734 118.593L42.6228 113.719H43.887V111.689L46.806 110.063C46.806 110.063 48.4479 109.004 50.5466 109.004C52.6453 109.004 54.2864 110.063 54.2864 110.063L57.2046 111.689V113.719H58.4734L59.3234 118.593L57.2277 118.968Z" stroke="#935DD1" stroke-width="1.38996" stroke-linecap="round" stroke-linejoin="round"/>
<path d="M50.9399 114.285C50.9803 114.295 51.0207 114.303 51.0612 114.315C51.3203 114.384 51.5105 114.625 51.5334 114.915C51.5537 115.142 51.5161 115.349 51.3565 115.512C51.3284 115.54 51.2973 115.564 51.2648 115.591C51.3139 115.692 51.3616 115.792 51.4092 115.892C51.4569 115.992 51.5089 116.092 51.558 116.192H51.5753L52.0902 114.293C52.2671 114.293 52.4513 114.293 52.6282 114.293C52.6433 114.293 52.6628 114.326 52.6701 114.348C52.7899 114.687 52.9062 115.026 53.0261 115.363C53.1647 115.757 53.3063 116.146 53.4463 116.537C53.4543 116.557 53.4615 116.579 53.4723 116.61L53.1835 116.584C53.0961 116.576 53.0095 116.567 52.9221 116.562C52.8949 116.565 52.8705 116.544 52.8658 116.515C52.8311 116.395 52.7935 116.278 52.7574 116.155C52.7479 116.134 52.7298 116.118 52.7083 116.113C52.5357 116.099 52.3624 116.092 52.1899 116.08C52.1559 116.08 52.148 116.095 52.1422 116.125C52.1213 116.235 52.0967 116.343 52.0786 116.453C52.0714 116.497 52.0541 116.505 52.0173 116.503C51.7414 116.493 51.4656 116.484 51.1897 116.477C51.1594 116.479 51.1316 116.459 51.1218 116.427C51.0229 116.203 50.9211 115.982 50.8222 115.758C50.8117 115.722 50.7793 115.699 50.7449 115.704C50.6849 115.704 50.6236 115.704 50.5528 115.704V116.475H50.0365V115.704C49.952 115.734 49.9137 115.66 49.8646 115.608L49.6928 115.425C49.5303 115.704 49.2833 115.796 48.9988 115.803C48.9266 115.803 48.8544 115.811 48.7764 115.816C48.7619 116.059 48.7482 116.3 48.7338 116.546L48.2073 116.591C48.2615 115.823 48.3149 115.064 48.3691 114.304C48.3801 114.302 48.3911 114.3 48.4023 114.299C48.6551 114.294 48.9078 114.285 49.1613 114.286C49.3902 114.286 49.583 114.378 49.7029 114.601C49.7781 114.752 49.806 114.925 49.7823 115.095C49.7751 115.163 49.7606 115.229 49.7491 115.297H50.0632C50.0632 115.156 50.0531 115.022 50.0632 114.888C50.0827 114.765 50.032 114.64 49.9347 114.573C49.8423 114.493 49.7538 114.408 49.6696 114.318C49.6575 114.303 49.6469 114.287 49.6379 114.27L50.9399 114.285ZM50.5564 115.305H50.7427C50.7651 115.305 50.7882 115.305 50.8106 115.305C50.9079 115.306 50.9926 115.232 51.0142 115.129C51.0264 115.051 51.0264 114.971 51.0142 114.892C51.0027 114.808 50.9402 114.743 50.8626 114.735C50.7637 114.721 50.6633 114.723 50.5593 114.717L50.5564 115.305ZM48.7995 115.371C48.8811 115.371 48.9519 115.371 49.0219 115.358C49.1224 115.339 49.2075 115.267 49.2485 115.165C49.2894 115.063 49.2808 114.945 49.2255 114.851C49.1945 114.796 49.1404 114.761 49.0811 114.758C48.9995 114.753 48.9179 114.758 48.8313 114.758C48.8197 114.963 48.8082 115.164 48.7966 115.373M52.2274 115.663H52.6166C52.5444 115.401 52.4671 115.132 52.3913 114.863H52.3798C52.3314 115.126 52.2837 115.387 52.2353 115.663M58.1523 117.78C57.9557 117.736 57.759 117.692 57.5615 117.65C57.5237 117.644 57.4922 117.621 57.4778 117.589C57.3104 117.288 57.143 116.987 56.9756 116.68C56.9592 116.641 56.9181 116.615 56.8719 116.615C56.8066 116.61 56.7413 116.597 56.6643 116.585C56.7154 116.892 56.7656 117.187 56.8183 117.499L56.4417 117.431C56.4308 117.431 56.4208 117.426 56.4099 117.424C56.2182 117.392 56.2208 117.392 56.1931 117.216C56.0855 116.543 55.9767 115.871 55.8667 115.2C55.8492 115.087 55.8316 114.974 55.8123 114.855L55.9697 114.861C56.2208 114.873 56.481 114.882 56.7363 114.899C56.9348 114.91 57.1214 114.988 57.2585 115.117C57.5834 115.417 57.7285 115.839 57.6485 116.252C57.6311 116.359 57.5718 116.458 57.4811 116.53C57.4686 116.543 57.4639 116.561 57.4686 116.578C57.6918 116.974 57.9149 117.37 58.1381 117.765H58.144L58.1523 117.78ZM56.5798 116.093C56.6802 116.105 56.7756 116.119 56.8719 116.126C56.9165 116.132 56.9621 116.122 56.9983 116.098C57.0346 116.074 57.0584 116.038 57.0644 115.997C57.0778 115.926 57.0778 115.853 57.0644 115.782C56.9907 115.423 56.7974 115.406 56.4643 115.406C56.5028 115.631 56.5405 115.857 56.5806 116.091M43.5293 117.776C43.5665 117.516 43.603 117.262 43.6389 117.011C43.7105 116.513 43.7829 116.017 43.8526 115.513C43.8562 115.478 43.8507 115.442 43.8367 115.411C43.7749 115.267 43.7092 115.125 43.6455 114.982C43.6375 114.964 43.6316 114.946 43.6223 114.922L44.0922 114.887C44.2515 114.875 44.4102 114.86 44.5695 114.856C44.6619 114.851 44.7545 114.859 44.8449 114.882C45.0786 114.952 45.1954 115.153 45.2498 115.409C45.2963 115.674 45.2929 115.947 45.2399 116.21C45.1951 116.531 45.0825 116.835 44.912 117.094C44.7478 117.342 44.5127 117.516 44.2482 117.584C44.0099 117.646 43.7723 117.713 43.5273 117.78M44.1061 117.05C44.1778 117.033 44.2435 117.021 44.3053 117.002C44.4978 116.943 44.6026 116.78 44.6697 116.578C44.7467 116.338 44.7852 116.084 44.7832 115.829C44.7827 115.764 44.7742 115.7 44.758 115.639C44.735 115.51 44.6302 115.423 44.517 115.439C44.4765 115.439 44.4367 115.453 44.3969 115.45C44.3305 115.444 44.3205 115.48 44.3119 115.543C44.2674 115.886 44.2183 116.232 44.1705 116.572C44.1493 116.725 44.1281 116.884 44.1042 117.05" fill="#232638"/>
<path d="M45.3417 116.643L46.2344 116.539C46.2227 116.635 46.2117 116.72 46.2008 116.805C46.1946 116.852 46.1845 116.898 46.1821 116.942C46.1821 116.977 46.1657 116.989 46.1291 116.994L44.6992 117.195C44.8229 116.436 44.9474 115.672 45.0727 114.906L46.4542 114.855C46.4433 114.942 46.4339 115.022 46.423 115.102C46.4168 115.154 46.4059 115.205 46.4035 115.258C46.4035 115.298 46.3809 115.307 46.3381 115.309C46.08 115.322 45.8211 115.338 45.5631 115.353C45.5549 115.354 45.5468 115.355 45.5389 115.357C45.5194 115.482 45.4999 115.608 45.4797 115.742L46.1813 115.689C46.1611 115.841 46.1408 115.988 46.1197 116.14L45.666 116.185C45.5927 116.193 45.5186 116.198 45.4461 116.209C45.4254 116.215 45.4092 116.229 45.4025 116.247C45.3799 116.375 45.3611 116.504 45.3401 116.641M54.6442 114.855C54.7316 114.855 54.8135 114.855 54.8954 114.855C55.2511 114.867 55.606 114.882 55.9616 114.893C56.0092 114.893 56.0272 114.907 56.0334 114.95C56.0521 115.088 56.0779 115.229 56.1028 115.378L55.2448 115.325C55.2635 115.454 55.2815 115.58 55.2994 115.707L56.0014 115.767C56.0264 115.924 56.0513 116.08 56.0794 116.247L55.3673 116.172C55.3837 116.284 55.3969 116.389 55.4133 116.494C55.4297 116.598 55.432 116.597 55.5506 116.612L56.3212 116.711C56.347 116.871 56.3735 117.03 56.3992 117.195C56.1995 117.165 56.0092 117.134 55.8212 117.106C55.5451 117.066 55.2698 117.028 54.9929 116.992C54.9367 116.985 54.9149 116.968 54.9149 116.915C54.8626 116.503 54.8049 116.091 54.7495 115.675C54.7152 115.42 54.6811 115.165 54.6473 114.911C54.6473 114.893 54.6473 114.875 54.6473 114.858M46.7508 114.893L48.2092 114.855C48.1953 115.012 48.1821 115.161 48.1681 115.315L47.7351 115.332C47.5987 115.337 47.4624 115.344 47.3243 115.346C47.275 115.346 47.2586 115.363 47.2553 115.408C47.2471 115.518 47.2323 115.627 47.2192 115.742L47.9586 115.704C47.9438 115.862 47.9299 116.011 47.9159 116.164L47.1625 116.217C47.146 116.361 47.1296 116.502 47.1132 116.651L48.0572 116.576C48.0441 116.725 48.0326 116.868 48.0178 117.007C48.0178 117.019 47.9907 117.036 47.9751 117.038C47.6119 117.075 47.2479 117.113 46.8839 117.147C46.7681 117.158 46.6522 117.174 46.5364 117.187L46.4542 117.195C46.5512 116.427 46.6473 115.665 46.7451 114.894M54.4056 115.436C54.2627 115.412 54.1276 115.383 53.991 115.37C53.6919 115.341 53.5011 115.496 53.4941 115.778C53.4902 115.913 53.5026 116.048 53.531 116.18C53.6008 116.503 53.8293 116.679 54.1779 116.687C54.3121 116.687 54.4456 116.681 54.5861 116.677C54.605 116.831 54.6238 116.989 54.6442 117.156C54.5724 117.171 54.4998 117.182 54.4267 117.19C54.1929 117.208 53.9577 117.181 53.7351 117.111C53.3928 117.011 53.1214 116.762 53.0049 116.441C52.8743 116.119 52.8537 115.766 52.9461 115.432C53.0513 115.073 53.3386 114.868 53.7312 114.856C53.9261 114.85 54.1203 114.881 54.3019 114.949C54.3299 114.955 54.3499 114.978 54.3506 115.005C54.3655 115.154 54.3851 115.295 54.4024 115.437" fill="#232638"/>
<path d="M87.1389 92.4297C95.5599 93.476 119.982 98.7408 127.266 110.28C132.985 119.341 14.5786 115.703 18.5222 110.28C26.5583 99.2322 46.8256 93.476 55.2465 92.4297" stroke="#232638" stroke-width="1.90164" stroke-linecap="round" stroke-linejoin="round"/>
<path d="M55.5009 89.5039C55.3822 90.7094 55.3822 91.879 55.6048 93.0486C55.679 93.2679 55.8273 93.4141 55.9015 93.5603C55.9757 93.7065 55.9757 93.9258 56.1241 94.072C56.1983 94.1451 56.1241 94.2913 56.1983 94.3644C57.3852 96.4844 58.9431 98.0926 60.7235 99.7009C60.7977 99.774 60.9461 99.7009 61.0203 99.774C64.3586 102.552 68.5871 103.795 72.8156 103.502C77.7118 103.137 82.237 100.797 85.2044 96.5575L85.6495 96.1189C86.3914 95.0223 87.2074 94.072 87.5041 92.7562C87.6525 92.0983 87.5783 91.4404 87.5783 90.8037" stroke="#232638" stroke-width="1.90164" stroke-linecap="round" stroke-linejoin="round"/>
<path d="M71.9671 155.219C111.582 155.219 143.696 123.105 143.696 83.4905C143.696 43.8758 111.582 11.7617 71.9671 11.7617C32.3524 11.7617 0.238281 43.8758 0.238281 83.4905C0.238281 123.105 32.3524 155.219 71.9671 155.219Z" fill="#E6E5E5"/>
<mask id="mask0_1714_41049" style="mask-type:luminance" maskUnits="userSpaceOnUse" x="0" y="11" width="144" height="145">
<path d="M71.9671 155.219C111.582 155.219 143.696 123.105 143.696 83.4905C143.696 43.8758 111.582 11.7617 71.9671 11.7617C32.3524 11.7617 0.238281 43.8758 0.238281 83.4905C0.238281 123.105 32.3524 155.219 71.9671 155.219Z" fill="white"/>
</mask>
<g mask="url(#mask0_1714_41049)">
<path d="M128.939 112.319C117.239 99.8389 116.459 101.399 109.439 99.0589C105.429 98.5242 96.179 94.3789 92.279 92.8189C90.9102 92.2714 87.5567 90.3146 88.8162 90.6907C90.719 91.2589 98.7221 83.8426 103.199 80.3389C111.158 74.1099 108.659 61.6189 109.439 56.9389C93.059 62.3989 93.763 67.2851 73.559 67.0789C53.355 66.8727 41.579 57.7189 34.559 55.3789C35.339 67.8589 33.6908 72.3352 38.459 80.3389C49.379 91.2589 59.519 90.4789 54.839 93.5989C43.919 95.9389 24.419 102.959 17.399 115.439C14.8457 125.014 13.8057 142.434 14.279 167.699L132.059 169.259C133.099 137.539 132.059 118.559 128.939 112.319Z" fill="white"/>
<path d="M109.44 35.8786C104.24 16.6386 91.76 5.19859 72 1.55859C57.96 5.19859 49.64 8.57859 47.04 11.6986L33 31.9786V35.0986C46.1495 29.7675 59.1495 27.1675 72 27.2986C84.6295 27.4275 97.1096 30.2875 109.44 35.8786Z" fill="#FFFBFB"/>
<path opacity="0.054" d="M33.7812 37.4369C50.9412 30.6769 63.9412 27.2969 72.7812 27.2969C81.6212 27.2969 93.5812 30.6769 108.661 37.4369V53.0369C99.6905 61.3569 88.5105 65.5169 75.1213 65.5169C61.732 65.5169 47.952 61.3569 33.7812 53.0369V37.4369Z" fill="url(#paint1_linear_1714_41049)" stroke="#979797" stroke-width="1.56" stroke-linecap="square"/>
<path d="M97.5427 42.118L81.7477 63.763M92.2777 30.418L72.9727 56.743M95.2027 35.683L85.2577 49.723" stroke="#935DD1" stroke-width="1.60836" stroke-linecap="round" stroke-linejoin="round"/>
<path fill-rule="evenodd" clip-rule="evenodd" d="M104.937 77.4143C104.937 77.4143 79.3068 109.987 37.0168 79.1829C32.8856 58.1799 31.7865 44.6938 33.1862 35.1134C34.5858 25.5331 49.2026 2.33984 72.355 2.33984C95.5074 2.33984 108.325 29.1441 109.504 34.966C110.683 40.7879 108.546 60.1697 104.937 77.4143Z" stroke="#232638" stroke-width="2.34" stroke-linecap="round" stroke-linejoin="round"/>
<path d="M32.6094 36.8552C32.6094 36.8552 67.1538 14.4789 109.829 36.8552M33.2206 52.6513C32.0733 52.4449 68.7421 81.1043 109.244 53.5396" stroke="#232638" stroke-width="2.19336" stroke-linecap="round" stroke-linejoin="round"/>
<path d="M105.733 73.125C105.733 73.125 79.6994 107.411 36.7031 74.9544" stroke="#232638" stroke-width="1.755" stroke-linecap="round" stroke-linejoin="round"/>
<path d="M34.9492 32.7583C36.8569 31.5512 38.8316 30.4599 40.8631 29.4902C42.8972 28.5196 44.9792 27.6592 47.1006 26.9125C48.3042 26.4872 49.5188 26.0957 50.7442 25.7383" stroke="#232638" stroke-width="1.31664" stroke-linecap="round" stroke-linejoin="round"/>
<path d="M93.4492 64.3472C98.3521 62.3094 103.181 59.8063 107.489 56.7422" stroke="#232638" stroke-width="1.53504" stroke-linecap="round" stroke-linejoin="round"/>
<path d="M65.9542 84.2397C63.6064 83.7497 61.297 83.1043 59.0428 82.3081C56.9031 81.5507 54.8208 80.6528 52.8107 79.6207C51.6956 79.0503 50.6168 78.445 49.5742 77.8047M77.0692 84.8247C79.3301 84.2553 81.5489 83.5322 83.7102 82.6606C85.7789 81.8241 87.7888 80.8506 89.7264 79.7465C90.8059 79.1323 91.8518 78.485 92.8642 77.8047" stroke="#232638" stroke-width="1.82832" stroke-linecap="round" stroke-linejoin="round"/>
<path d="M41.3828 38.0228C43.472 37.0233 45.617 36.1487 47.8068 35.4036C49.9984 34.6577 52.2271 34.0289 54.4835 33.5199C55.7639 33.2293 57.052 32.9753 58.3478 32.7578" stroke="#935DD1" stroke-width="1.31664" stroke-linecap="round" stroke-linejoin="round"/>
<path fill-rule="evenodd" clip-rule="evenodd" d="M57.2277 118.968C57.4419 122.639 54.9596 124.413 54.9596 124.413L50.5458 127.724L46.1305 124.413C46.1305 124.413 43.6497 122.639 43.8632 118.968L41.7734 118.593L42.6228 113.719H43.887V111.689L46.806 110.063C46.806 110.063 48.4479 109.004 50.5466 109.004C52.6453 109.004 54.2864 110.063 54.2864 110.063L57.2046 111.689V113.719H58.4734L59.3234 118.593L57.2277 118.968Z" stroke="#935DD1" stroke-width="1.38996" stroke-linecap="round" stroke-linejoin="round"/>
<path d="M50.9399 114.285C50.9803 114.295 51.0207 114.303 51.0612 114.315C51.3203 114.384 51.5105 114.625 51.5334 114.915C51.5537 115.142 51.5161 115.349 51.3565 115.512C51.3284 115.54 51.2973 115.564 51.2648 115.591C51.3139 115.692 51.3616 115.792 51.4092 115.892C51.4569 115.992 51.5089 116.092 51.558 116.192H51.5753L52.0902 114.293C52.2671 114.293 52.4513 114.293 52.6282 114.293C52.6433 114.293 52.6628 114.326 52.6701 114.348C52.7899 114.687 52.9062 115.026 53.0261 115.363C53.1647 115.757 53.3063 116.146 53.4463 116.537C53.4543 116.557 53.4615 116.579 53.4723 116.61L53.1835 116.584C53.0961 116.576 53.0095 116.567 52.9221 116.562C52.8949 116.565 52.8705 116.544 52.8658 116.515C52.8311 116.395 52.7935 116.278 52.7574 116.155C52.7479 116.134 52.7298 116.118 52.7083 116.113C52.5357 116.099 52.3624 116.092 52.1899 116.08C52.1559 116.08 52.148 116.095 52.1422 116.125C52.1213 116.235 52.0967 116.343 52.0786 116.453C52.0714 116.497 52.0541 116.505 52.0173 116.503C51.7414 116.493 51.4656 116.484 51.1897 116.477C51.1594 116.479 51.1316 116.459 51.1218 116.427C51.0229 116.203 50.9211 115.982 50.8222 115.758C50.8117 115.722 50.7793 115.699 50.7449 115.704C50.6849 115.704 50.6236 115.704 50.5528 115.704V116.475H50.0365V115.704C49.952 115.734 49.9137 115.66 49.8646 115.608L49.6928 115.425C49.5303 115.704 49.2833 115.796 48.9988 115.803C48.9266 115.803 48.8544 115.811 48.7764 115.816C48.7619 116.059 48.7482 116.3 48.7338 116.546L48.2073 116.591C48.2615 115.823 48.3149 115.064 48.3691 114.304C48.3801 114.302 48.3911 114.3 48.4023 114.299C48.6551 114.294 48.9078 114.285 49.1613 114.286C49.3902 114.286 49.583 114.378 49.7029 114.601C49.7781 114.752 49.806 114.925 49.7823 115.095C49.7751 115.163 49.7606 115.229 49.7491 115.297H50.0632C50.0632 115.156 50.0531 115.022 50.0632 114.888C50.0827 114.765 50.032 114.64 49.9347 114.573C49.8423 114.493 49.7538 114.408 49.6696 114.318C49.6575 114.303 49.6469 114.287 49.6379 114.27L50.9399 114.285ZM50.5564 115.305H50.7427C50.7651 115.305 50.7882 115.305 50.8106 115.305C50.9079 115.306 50.9926 115.232 51.0142 115.129C51.0264 115.051 51.0264 114.971 51.0142 114.892C51.0027 114.808 50.9402 114.743 50.8626 114.735C50.7637 114.721 50.6633 114.723 50.5593 114.717L50.5564 115.305ZM48.7995 115.371C48.8811 115.371 48.9519 115.371 49.0219 115.358C49.1224 115.339 49.2075 115.267 49.2485 115.165C49.2894 115.063 49.2808 114.945 49.2255 114.851C49.1945 114.796 49.1404 114.761 49.0811 114.758C48.9995 114.753 48.9179 114.758 48.8313 114.758C48.8197 114.963 48.8082 115.164 48.7966 115.373M52.2274 115.663H52.6166C52.5444 115.401 52.4671 115.132 52.3913 114.863H52.3798C52.3314 115.126 52.2837 115.387 52.2353 115.663M58.1523 117.78C57.9557 117.736 57.759 117.692 57.5615 117.65C57.5237 117.644 57.4922 117.621 57.4778 117.589C57.3104 117.288 57.143 116.987 56.9756 116.68C56.9592 116.641 56.9181 116.615 56.8719 116.615C56.8066 116.61 56.7413 116.597 56.6643 116.585C56.7154 116.892 56.7656 117.187 56.8183 117.499L56.4417 117.431C56.4308 117.431 56.4208 117.426 56.4099 117.424C56.2182 117.392 56.2208 117.392 56.1931 117.216C56.0855 116.543 55.9767 115.871 55.8667 115.2C55.8492 115.087 55.8316 114.974 55.8123 114.855L55.9697 114.861C56.2208 114.873 56.481 114.882 56.7363 114.899C56.9348 114.91 57.1214 114.988 57.2585 115.117C57.5834 115.417 57.7285 115.839 57.6485 116.252C57.6311 116.359 57.5718 116.458 57.4811 116.53C57.4686 116.543 57.4639 116.561 57.4686 116.578C57.6918 116.974 57.9149 117.37 58.1381 117.765H58.144L58.1523 117.78ZM56.5798 116.093C56.6802 116.105 56.7756 116.119 56.8719 116.126C56.9165 116.132 56.9621 116.122 56.9983 116.098C57.0346 116.074 57.0584 116.038 57.0644 115.997C57.0778 115.926 57.0778 115.853 57.0644 115.782C56.9907 115.423 56.7974 115.406 56.4643 115.406C56.5028 115.631 56.5405 115.857 56.5806 116.091M43.5293 117.776C43.5665 117.516 43.603 117.262 43.6389 117.011C43.7105 116.513 43.7829 116.017 43.8526 115.513C43.8562 115.478 43.8507 115.442 43.8367 115.411C43.7749 115.267 43.7092 115.125 43.6455 114.982C43.6375 114.964 43.6316 114.946 43.6223 114.922L44.0922 114.887C44.2515 114.875 44.4102 114.86 44.5695 114.856C44.6619 114.851 44.7545 114.859 44.8449 114.882C45.0786 114.952 45.1954 115.153 45.2498 115.409C45.2963 115.674 45.2929 115.947 45.2399 116.21C45.1951 116.531 45.0825 116.835 44.912 117.094C44.7478 117.342 44.5127 117.516 44.2482 117.584C44.0099 117.646 43.7723 117.713 43.5273 117.78M44.1061 117.05C44.1778 117.033 44.2435 117.021 44.3053 117.002C44.4978 116.943 44.6026 116.78 44.6697 116.578C44.7467 116.338 44.7852 116.084 44.7832 115.829C44.7827 115.764 44.7742 115.7 44.758 115.639C44.735 115.51 44.6302 115.423 44.517 115.439C44.4765 115.439 44.4367 115.453 44.3969 115.45C44.3305 115.444 44.3205 115.48 44.3119 115.543C44.2674 115.886 44.2183 116.232 44.1705 116.572C44.1493 116.725 44.1281 116.884 44.1042 117.05" fill="#232638"/>
<path d="M45.3417 116.643L46.2344 116.539C46.2227 116.635 46.2117 116.72 46.2008 116.805C46.1946 116.852 46.1845 116.898 46.1821 116.942C46.1821 116.977 46.1657 116.989 46.1291 116.994L44.6992 117.195C44.8229 116.436 44.9474 115.672 45.0727 114.906L46.4542 114.855C46.4433 114.942 46.4339 115.022 46.423 115.102C46.4168 115.154 46.4059 115.205 46.4035 115.258C46.4035 115.298 46.3809 115.307 46.3381 115.309C46.08 115.322 45.8211 115.338 45.5631 115.353C45.5549 115.354 45.5468 115.355 45.5389 115.357C45.5194 115.482 45.4999 115.608 45.4797 115.742L46.1813 115.689C46.1611 115.841 46.1408 115.988 46.1197 116.14L45.666 116.185C45.5927 116.193 45.5186 116.198 45.4461 116.209C45.4254 116.215 45.4092 116.229 45.4025 116.247C45.3799 116.375 45.3611 116.504 45.3401 116.641M54.6442 114.855C54.7316 114.855 54.8135 114.855 54.8954 114.855C55.2511 114.867 55.606 114.882 55.9616 114.893C56.0092 114.893 56.0272 114.907 56.0334 114.95C56.0521 115.088 56.0779 115.229 56.1028 115.378L55.2448 115.325C55.2635 115.454 55.2815 115.58 55.2994 115.707L56.0014 115.767C56.0264 115.924 56.0513 116.08 56.0794 116.247L55.3673 116.172C55.3837 116.284 55.3969 116.389 55.4133 116.494C55.4297 116.598 55.432 116.597 55.5506 116.612L56.3212 116.711C56.347 116.871 56.3735 117.03 56.3992 117.195C56.1995 117.165 56.0092 117.134 55.8212 117.106C55.5451 117.066 55.2698 117.028 54.9929 116.992C54.9367 116.985 54.9149 116.968 54.9149 116.915C54.8626 116.503 54.8049 116.091 54.7495 115.675C54.7152 115.42 54.6811 115.165 54.6473 114.911C54.6473 114.893 54.6473 114.875 54.6473 114.858M46.7508 114.893L48.2092 114.855C48.1953 115.012 48.1821 115.161 48.1681 115.315L47.7351 115.332C47.5987 115.337 47.4624 115.344 47.3243 115.346C47.275 115.346 47.2586 115.363 47.2553 115.408C47.2471 115.518 47.2323 115.627 47.2192 115.742L47.9586 115.704C47.9438 115.862 47.9299 116.011 47.9159 116.164L47.1625 116.217C47.146 116.361 47.1296 116.502 47.1132 116.651L48.0572 116.576C48.0441 116.725 48.0326 116.868 48.0178 117.007C48.0178 117.019 47.9907 117.036 47.9751 117.038C47.6119 117.075 47.2479 117.113 46.8839 117.147C46.7681 117.158 46.6522 117.174 46.5364 117.187L46.4542 117.195C46.5512 116.427 46.6473 115.665 46.7451 114.894M54.4056 115.436C54.2627 115.412 54.1276 115.383 53.991 115.37C53.6919 115.341 53.5011 115.496 53.4941 115.778C53.4902 115.913 53.5026 116.048 53.531 116.18C53.6008 116.503 53.8293 116.679 54.1779 116.687C54.3121 116.687 54.4456 116.681 54.5861 116.677C54.605 116.831 54.6238 116.989 54.6442 117.156C54.5724 117.171 54.4998 117.182 54.4267 117.19C54.1929 117.208 53.9577 117.181 53.7351 117.111C53.3928 117.011 53.1214 116.762 53.0049 116.441C52.8743 116.119 52.8537 115.766 52.9461 115.432C53.0513 115.073 53.3386 114.868 53.7312 114.856C53.9261 114.85 54.1203 114.881 54.3019 114.949C54.3299 114.955 54.3499 114.978 54.3506 115.005C54.3655 115.154 54.3851 115.295 54.4024 115.437" fill="#232638"/>
<path d="M87.1429 92.4297C95.5639 93.476 119.986 98.7408 127.27 110.28C132.989 119.341 132.98 141.444 132.841 166.14L15.841 166.92C15.7031 142.224 14.5826 115.703 18.5262 110.28C26.5623 99.2322 46.8296 93.476 55.2506 92.4297" stroke="#232638" stroke-width="1.90164" stroke-linecap="round" stroke-linejoin="round"/>
<path d="M37.3281 128.113V149.173" stroke="#232638" stroke-width="1.755" stroke-linecap="round" stroke-linejoin="round"/>
<path d="M106.945 128.113V149.173" stroke="#232638" stroke-width="1.755" stroke-linecap="round" stroke-linejoin="round"/>
<path d="M12.7188 135.176H37.2887" stroke="#232638" stroke-width="1.755" stroke-linecap="round" stroke-linejoin="round"/>
<path d="M106.906 135.176H133.231" stroke="#232638" stroke-width="1.755" stroke-linecap="round" stroke-linejoin="round"/>
<path fill-rule="evenodd" clip-rule="evenodd" d="M55.5048 89.5039C55.3861 90.7094 55.3861 91.879 55.6087 93.0486C55.6829 93.2679 55.8312 93.4141 55.9054 93.5603C55.9796 93.7065 55.9796 93.9258 56.128 94.072C56.2022 94.1451 56.128 94.2913 56.2022 94.3644C57.3891 96.4844 58.947 98.0926 60.7274 99.7009C60.8016 99.774 60.95 99.7009 61.0242 99.774C64.3625 102.552 68.591 103.795 72.8195 103.502C77.7157 103.137 82.2409 100.797 85.2083 96.5575L85.6534 96.1189C86.3953 95.0223 87.2113 94.072 87.508 92.7562C87.6564 92.0983 87.5822 91.4404 87.5822 90.8037L75.9008 92.8189H68.1008H61.8608L58.7408 89.6989L55.5048 89.5039Z" fill="#D8D8D8" fill-opacity="0.724" stroke="#232638" stroke-width="1.90164" stroke-linecap="round" stroke-linejoin="round"/>
<path d="M121.919 135.719H107.879V146.639H121.919V135.719Z" fill="#D8D8D8"/>
<path d="M36.1181 135.719H22.0781V146.639H36.1181V135.719Z" fill="#D8D8D8"/>
</g>
</g>
<defs>
<linearGradient id="paint0_linear_1714_41049" x1="5242.06" y1="1532.9" x2="3465.58" y2="3881.7" gradientUnits="userSpaceOnUse">
<stop stop-color="#979797"/>
<stop offset="0.51187" stop-color="#606060"/>
<stop offset="1"/>
</linearGradient>
<linearGradient id="paint1_linear_1714_41049" x1="5242.06" y1="1532.9" x2="3465.59" y2="3881.7" gradientUnits="userSpaceOnUse">
<stop stop-color="#979797"/>
<stop offset="0.51187" stop-color="#606060"/>
<stop offset="1"/>
</linearGradient>
<clipPath id="clip0_1714_41049">
<rect width="143.52" height="156" fill="white" transform="translate(0.238281)"/>
</clipPath>
</defs>
</svg>
