<?xml version="1.0" encoding="utf-8"?>
<!-- Generator: Adobe Illustrator 27.0.0, SVG Export Plug-In . SVG Version: 6.00 Build 0)  -->
<svg version="1.1" id="Layer_1" xmlns="http://www.w3.org/2000/svg" xmlns:xlink="http://www.w3.org/1999/xlink" x="0px" y="0px"
	 viewBox="0 0 286.52 178.96" style="enable-background:new 0 0 286.52 178.96;" xml:space="preserve">
<style type="text/css">
	.st0{fill:#FFFFFF;}
	.st1{fill:none;stroke:#FFFFFF;stroke-width:1.008;stroke-miterlimit:10;}
	.st2{fill:none;stroke:#FFFFFF;stroke-width:1.008;stroke-miterlimit:10;stroke-dasharray:2.0082,2.0066;}
	.st3{fill:none;stroke:#FFFFFF;stroke-width:1.008;stroke-miterlimit:10;stroke-dasharray:1.9838,1.9822;}
	.st4{fill:none;stroke:#010101;stroke-width:0;stroke-miterlimit:10;}
	.st5{opacity:0.75;fill:#F7941D;stroke:#FFFFFF;stroke-miterlimit:10;}
</style>
<path class="st0" d="M230.81,94.38c-0.08,0-0.17,0-0.25,0h0l-45.7,0.39c-0.14,0-0.28,0-0.42,0c-14.66,0-28.54-6.59-37.79-17.95v0
	l-34.48-42.3c-3.97-4.87-9.92-7.69-16.2-7.69c-0.2,0-0.41,0-0.61,0.01h0l-48.22,1.41c-11.3,0.33-20.28,9.58-20.28,20.87
	c0,1.47,0.16,2.94,0.47,4.38l0,0l18.15,84.47c1.77,8.25,9.07,14.14,17.51,14.14l167.84-0.07c15.93-0.01,28.84-12.91,28.84-28.83
	C259.66,107.3,246.73,94.38,230.81,94.38z M230.82,149.06l-167.83,0.07c-7.03,0-13.11-4.91-14.59-11.78L30.24,52.89l0,0
	c-0.27-1.23-0.4-2.49-0.4-3.76c0-9.68,7.7-17.61,17.39-17.89l48.22-1.41v0c0.17-0.01,0.35-0.01,0.52-0.01
	c5.38,0,10.48,2.42,13.88,6.59l34.48,42.3l0,0c9.82,12.05,24.55,19.05,40.11,19.05c0.15,0,0.3,0,0.45,0l45.7-0.4h0
	c0.07,0,0.15,0,0.22,0c14.28,0,25.87,11.58,25.87,25.85C256.67,137.49,245.1,149.06,230.82,149.06z"/>
<path class="st0" d="M230.81,67.54c-0.16,0-0.32,0-0.48,0h0l-45.7,0.39c-0.06,0-0.13,0-0.19,0c-6.58,0-12.81-2.96-16.97-8.06
	l-34.48-42.3C123.92,6.46,110.33,0,95.97,0c-0.46,0-0.93,0.01-1.39,0.02L46.36,1.43C20.54,2.18,0,23.31,0,49.13
	c0,3.37,0.36,6.73,1.06,10.02l0,0l18.15,84.47c4.43,20.62,22.67,35.35,43.77,35.35l167.85-0.07c30.76-0.01,55.69-24.94,55.69-55.68
	C286.52,92.48,261.56,67.54,230.81,67.54z M230.83,175.91l-167.85,0.07c-19.7,0-36.72-13.75-40.85-32.99L3.98,58.52h0
	c-0.66-3.09-1-6.24-1-9.39c0-24.2,19.26-44.02,43.46-44.72L94.66,3l0,0c0.43-0.01,0.87-0.02,1.3-0.02
	c13.46,0,26.21,6.05,34.71,16.48l34.48,42.3h0c4.72,5.79,11.8,9.16,19.28,9.16c0.07,0,0.14,0,0.22,0l45.7-0.39h0
	c0.15,0,0.3,0,0.46,0c29.1,0,52.73,23.61,52.73,52.69C283.53,152.31,259.94,175.9,230.83,175.91z"/>
<g>
	<g>
		<path class="st1" d="M15.46,55.03c0.06,0.33,0.13,0.66,0.2,0.98l0,0L15.86,57"/>
		<path class="st2" d="M16.29,58.96l17.52,81.53c2.95,13.75,15.11,23.57,29.18,23.57l167.84-0.07
			c22.52-0.01,40.77-18.26,40.77-40.76c0-22.5-18.27-40.76-40.79-40.76c-0.12,0-0.24,0-0.35,0l0,0l-45.7,0.4c-0.11,0-0.21,0-0.32,0
			c-10.4,0-20.28-4.39-27.23-12.03"/>
		<path class="st1" d="M156.54,70.06c-0.22-0.25-0.43-0.51-0.64-0.77l0,0l-0.63-0.78"/>
		<path class="st3" d="M154.02,66.98L121.42,27c-6.23-7.65-15.58-12.09-25.45-12.09c-0.32,0-0.64,0-0.96,0.01h0L46.8,16.33
			c-17.75,0.52-31.87,15.05-31.87,32.8c0,1.65,0.12,3.3,0.37,4.93"/>
	</g>
</g>
<rect x="-11.94" y="-11.93" class="st4" width="310.39" height="202.83"/>
<circle id="DR_x5F_CAR" class="st5" cx="78.17" cy="157.92" r="3.82"/>
</svg>
